<svg width="375" height="812" viewBox="0 0 375 812" fill="none" xmlns="http://www.w3.org/2000/svg">
<g clip-path="url(#clip0_903_245)">
<path d="M172.44 160.31C172.57 160.34 172.71 160.38 172.84 160.41C172.82 160.46 172.81 160.51 172.79 160.57C172.66 160.53 172.53 160.49 172.4 160.45C172.41 160.4 172.43 160.36 172.44 160.31Z" fill="white"/>
<path d="M168.5 152.97C168.51 152.91 168.51 152.9 168.52 152.9C168.65 152.9 168.78 152.89 168.91 152.89C168.91 152.94 168.91 152.98 168.91 153.03C168.78 153.01 168.65 153 168.51 152.98L168.5 152.97Z" fill="white"/>
<path d="M172.42 155.22C172.53 155.22 172.64 155.22 172.74 155.22C172.74 155.22 172.74 155.31 172.74 155.35H172.41C172.41 155.35 172.41 155.26 172.41 155.21L172.42 155.22Z" fill="white"/>
<path d="M108.22 47.83V52.52C108.2 52.6 108.17 52.68 108.16 52.76C108.05 54.18 107.76 55.56 107.37 56.93C106.24 60.91 104.21 64.39 101.35 67.37C99.55 69.25 97.49 70.79 95.2 72.01C92.63 73.39 89.9 74.28 87.01 74.68C86.62 74.73 86.21 74.73 85.82 74.84H81.26C81.18 74.82 81.1 74.79 81.02 74.78C80.21 74.72 79.41 74.58 78.62 74.42C76.77 74.05 74.98 73.48 73.27 72.69C70.28 71.3 67.66 69.42 65.41 67C63.34 64.76 61.72 62.24 60.59 59.42C59.43 56.52 58.79 53.52 58.86 50.37C58.89 48.87 58.89 47.38 59.17 45.89C59.52 43.99 60.05 42.15 60.81 40.38C62.44 36.62 64.85 33.46 68.03 30.88C69.92 29.35 71.99 28.13 74.24 27.21C75.54 26.68 76.89 26.27 78.26 25.96C79.06 25.78 79.87 25.65 80.69 25.56C82.08 25.41 83.48 25.49 84.88 25.47C85.47 25.47 86.05 25.5 86.63 25.58C88.09 25.78 89.54 26.08 90.95 26.53C93.68 27.39 96.19 28.68 98.47 30.42C101.16 32.47 103.36 34.95 105.04 37.9C106.6 40.62 107.6 43.53 108.05 46.64C108.11 47.03 108.11 47.44 108.22 47.82V47.83ZM95.82 50.16C95.68 43.31 90.41 37.93 83.55 37.93C76.7 37.93 71.3 43.32 71.3 50.18C71.3 57.04 76.72 62.43 83.57 62.41C90.46 62.39 95.7 56.96 95.82 50.15V50.16Z" fill="#FFC453" fill-opacity="0.3"/>
<path d="M241.61 717.21V721.9C241.59 721.98 241.56 722.06 241.55 722.14C241.44 723.56 241.15 724.94 240.76 726.31C239.63 730.29 237.6 733.77 234.74 736.75C232.94 738.63 230.88 740.17 228.59 741.39C226.02 742.77 223.29 743.66 220.4 744.06C220.01 744.11 219.6 744.11 219.21 744.22H214.65C214.57 744.2 214.49 744.17 214.41 744.16C213.6 744.1 212.8 743.96 212.01 743.8C210.16 743.43 208.37 742.86 206.66 742.07C203.67 740.68 201.05 738.8 198.8 736.38C196.73 734.14 195.11 731.62 193.98 728.8C192.82 725.9 192.18 722.9 192.25 719.75C192.28 718.25 192.28 716.76 192.56 715.27C192.91 713.37 193.44 711.53 194.2 709.76C195.83 706 198.24 702.84 201.42 700.26C203.31 698.73 205.38 697.51 207.63 696.59C208.93 696.06 210.28 695.65 211.65 695.34C212.45 695.16 213.26 695.03 214.08 694.94C215.47 694.79 216.87 694.87 218.27 694.85C218.86 694.85 219.44 694.88 220.02 694.96C221.48 695.16 222.93 695.46 224.34 695.91C227.07 696.77 229.58 698.06 231.86 699.8C234.55 701.85 236.75 704.33 238.43 707.28C239.99 710 240.99 712.91 241.44 716.02C241.5 716.41 241.5 716.82 241.61 717.2V717.21ZM229.21 719.54C229.07 712.69 223.8 707.31 216.94 707.31C210.09 707.31 204.69 712.7 204.69 719.56C204.69 726.42 210.11 731.81 216.96 731.79C223.85 731.77 229.09 726.34 229.21 719.53V719.54Z" fill="#FFC453" fill-opacity="0.3"/>
<path d="M140.85 363.66V368.35C140.83 368.43 140.8 368.51 140.79 368.59C140.68 370.01 140.39 371.39 140 372.76C138.87 376.74 136.84 380.22 133.98 383.2C132.18 385.08 130.12 386.62 127.83 387.84C125.26 389.22 122.53 390.11 119.64 390.51C119.25 390.56 118.84 390.56 118.45 390.67H113.89C113.81 390.65 113.73 390.62 113.65 390.61C112.84 390.55 112.04 390.41 111.25 390.25C109.4 389.88 107.61 389.31 105.9 388.52C102.91 387.13 100.29 385.25 98.04 382.83C95.97 380.59 94.35 378.07 93.22 375.25C92.06 372.35 91.42 369.35 91.49 366.2C91.52 364.7 91.52 363.21 91.8 361.72C92.15 359.82 92.68 357.98 93.44 356.21C95.07 352.45 97.48 349.29 100.66 346.71C102.55 345.18 104.62 343.96 106.87 343.04C108.17 342.51 109.52 342.1 110.89 341.79C111.69 341.61 112.5 341.48 113.32 341.39C114.71 341.24 116.11 341.32 117.51 341.3C118.1 341.3 118.68 341.33 119.26 341.41C120.72 341.61 122.17 341.91 123.58 342.36C126.31 343.22 128.82 344.51 131.1 346.25C133.79 348.3 135.99 350.78 137.67 353.73C139.23 356.45 140.23 359.36 140.68 362.47C140.74 362.86 140.74 363.27 140.85 363.65V363.66ZM128.45 366C128.31 359.15 123.04 353.77 116.18 353.77C109.33 353.77 103.93 359.16 103.93 366.02C103.93 372.88 109.35 378.27 116.2 378.25C123.09 378.23 128.33 372.8 128.45 365.99V366Z" fill="#2EBC72" fill-opacity="0.3"/>
<path d="M305.09 254.93H301.86C301.16 254.78 300.45 254.65 299.76 254.43C297.63 253.75 295.83 252.56 294.34 250.9C293.12 249.54 292.24 247.97 291.73 246.2C291.57 245.64 291.44 245.07 291.34 244.5C291.25 244.53 291.26 244.59 291.25 244.63C291.17 245.27 291 245.88 290.81 246.49C290.13 248.62 288.94 250.43 287.28 251.91C285.91 253.13 284.35 254.01 282.58 254.52C281.97 254.7 281.34 254.81 280.71 254.93H277.54C277.07 254.83 276.6 254.76 276.14 254.64C272.45 253.66 269.77 251.45 268.07 248.04C267.5 246.91 267.15 245.71 266.99 244.45C266.89 243.65 266.96 242.85 266.94 242.05C266.91 241 267.13 239.99 267.45 239.01C268.11 236.97 269.23 235.21 270.81 233.76C272.48 232.22 274.42 231.2 276.66 230.75C276.9 230.7 277.14 230.65 277.38 230.6C274.13 230.03 271.47 228.49 269.44 225.9C267.39 223.29 266.66 220.29 266.96 217.04C267.45 211.81 271.67 206.93 277.61 206.25C280.33 205.94 282.95 206.36 285.34 207.82C288.67 209.85 290.64 212.8 291.29 216.64C291.37 216.61 291.36 216.56 291.37 216.51C291.45 215.87 291.61 215.26 291.81 214.65C292.77 211.73 294.58 209.47 297.2 207.87C298.6 207.02 300.12 206.48 301.76 206.26C302.64 206.15 303.52 206.23 304.4 206.2C305.03 206.18 305.65 206.3 306.27 206.44C307.85 206.81 309.3 207.46 310.62 208.42C312.76 209.97 314.25 211.98 315.12 214.48C315.38 215.22 315.52 215.98 315.67 216.75V220.04C315.52 220.74 315.4 221.45 315.17 222.14C314.5 224.21 313.35 225.98 311.75 227.45C310.37 228.72 308.78 229.62 306.97 230.15C306.4 230.32 305.82 230.43 305.15 230.56C305.28 230.6 305.32 230.62 305.37 230.63C306 230.72 306.62 230.88 307.23 231.07C309.36 231.75 311.16 232.94 312.65 234.6C313.87 235.96 314.74 237.53 315.26 239.3C315.44 239.91 315.54 240.54 315.67 241.17V244.34C315.6 244.73 315.54 245.12 315.45 245.5C314.91 247.76 313.83 249.73 312.19 251.39C310.69 252.9 308.93 253.95 306.89 254.54C306.29 254.71 305.68 254.8 305.08 254.94L305.09 254.93Z" fill="#75C1FF" fill-opacity="0.3"/>
<path d="M16.79 780.58H13.56C12.86 780.43 12.15 780.3 11.46 780.08C9.33 779.4 7.53 778.21 6.04 776.55C4.82 775.19 3.94 773.62 3.43 771.85C3.27 771.29 3.14 770.72 3.04 770.15C2.95 770.18 2.96 770.24 2.95 770.28C2.87 770.92 2.7 771.53 2.51 772.14C1.83 774.27 0.640001 776.08 -1.02 777.56C-2.39 778.78 -3.95 779.66 -5.72 780.17C-6.33 780.35 -6.96 780.46 -7.59 780.58H-10.76C-11.23 780.48 -11.7 780.41 -12.16 780.29C-15.85 779.31 -18.53 777.1 -20.23 773.69C-20.8 772.56 -21.15 771.36 -21.31 770.1C-21.41 769.3 -21.34 768.5 -21.36 767.7C-21.39 766.65 -21.17 765.64 -20.85 764.66C-20.19 762.62 -19.07 760.86 -17.49 759.41C-15.82 757.87 -13.88 756.85 -11.64 756.4C-11.4 756.35 -11.16 756.3 -10.92 756.25C-14.17 755.68 -16.83 754.14 -18.86 751.55C-20.91 748.94 -21.64 745.94 -21.34 742.69C-20.85 737.46 -16.63 732.58 -10.69 731.9C-7.97 731.59 -5.35 732.01 -2.96 733.47C0.370001 735.5 2.34 738.45 2.99 742.29C3.07 742.26 3.06 742.21 3.07 742.16C3.15 741.52 3.31 740.91 3.51 740.3C4.47 737.38 6.28 735.12 8.9 733.52C10.3 732.67 11.82 732.13 13.46 731.91C14.34 731.8 15.22 731.88 16.1 731.85C16.73 731.83 17.35 731.95 17.97 732.09C19.55 732.46 21 733.11 22.32 734.07C24.46 735.62 25.95 737.63 26.82 740.13C27.08 740.87 27.22 741.63 27.37 742.4V745.69C27.22 746.39 27.1 747.1 26.87 747.79C26.2 749.86 25.05 751.63 23.45 753.1C22.07 754.37 20.48 755.27 18.67 755.8C18.1 755.97 17.52 756.08 16.85 756.21C16.98 756.25 17.02 756.27 17.07 756.28C17.7 756.37 18.32 756.53 18.93 756.72C21.06 757.4 22.86 758.59 24.35 760.25C25.57 761.61 26.44 763.18 26.96 764.95C27.14 765.56 27.24 766.19 27.37 766.82V769.99C27.3 770.38 27.24 770.77 27.15 771.15C26.61 773.41 25.53 775.38 23.89 777.04C22.39 778.55 20.63 779.6 18.59 780.19C17.99 780.36 17.38 780.45 16.78 780.59L16.79 780.58Z" fill="#75C1FF" fill-opacity="0.3"/>
<path d="M255.11 13.64H251.88C251.18 13.49 250.47 13.36 249.78 13.14C247.65 12.46 245.85 11.27 244.36 9.60999C243.14 8.24999 242.26 6.68 241.75 4.91C241.59 4.34999 241.46 3.77999 241.36 3.21C241.27 3.23999 241.28 3.3 241.27 3.34C241.19 3.98 241.02 4.58999 240.83 5.19999C240.15 7.32999 238.96 9.14 237.3 10.62C235.93 11.84 234.37 12.72 232.6 13.23C231.99 13.41 231.36 13.52 230.73 13.64H227.56C227.09 13.54 226.62 13.47 226.16 13.35C222.47 12.37 219.79 10.16 218.09 6.75C217.52 5.62 217.17 4.41999 217.01 3.16C216.91 2.36 216.98 1.55999 216.96 0.759995C216.93 -0.290005 217.15 -1.30001 217.47 -2.28001C218.13 -4.32001 219.25 -6.08 220.83 -7.53C222.5 -9.07 224.44 -10.09 226.68 -10.54C226.92 -10.59 227.16 -10.64 227.4 -10.69C224.15 -11.26 221.49 -12.8 219.46 -15.39C217.41 -18 216.68 -21 216.98 -24.25C217.47 -29.48 221.69 -34.36 227.63 -35.04C230.35 -35.35 232.97 -34.93 235.36 -33.47C238.69 -31.44 240.66 -28.49 241.31 -24.65C241.39 -24.68 241.38 -24.73 241.39 -24.78C241.47 -25.42 241.63 -26.03 241.83 -26.64C242.79 -29.56 244.6 -31.82 247.22 -33.42C248.62 -34.27 250.14 -34.81 251.78 -35.03C252.66 -35.14 253.54 -35.06 254.42 -35.09C255.05 -35.11 255.67 -34.99 256.29 -34.85C257.87 -34.48 259.32 -33.83 260.64 -32.87C262.78 -31.32 264.27 -29.31 265.14 -26.81C265.4 -26.07 265.54 -25.31 265.69 -24.54V-21.25C265.54 -20.55 265.42 -19.84 265.19 -19.15C264.52 -17.08 263.37 -15.31 261.77 -13.84C260.39 -12.57 258.8 -11.67 256.99 -11.14C256.42 -10.97 255.84 -10.86 255.17 -10.73C255.3 -10.69 255.34 -10.67 255.39 -10.66C256.02 -10.57 256.64 -10.41 257.25 -10.22C259.38 -9.54 261.18 -8.35 262.67 -6.69C263.89 -5.33 264.76 -3.76001 265.28 -1.99001C265.46 -1.38 265.56 -0.750008 265.69 -0.120007V3.05C265.62 3.43999 265.56 3.82999 265.47 4.21C264.93 6.46999 263.85 8.43999 262.21 10.1C260.71 11.61 258.95 12.66 256.91 13.25C256.31 13.42 255.7 13.51 255.1 13.65L255.11 13.64Z" fill="#75C1FF" fill-opacity="0.3"/>
<path d="M338.46 84.88V87.12C338.46 87.12 338.42 87.21 338.41 87.26C338.1 88.63 337.4 89.77 336.31 90.65C335.29 91.46 334.14 91.95 332.82 91.96C331.8 91.96 330.78 91.96 329.76 91.96C329.67 91.96 329.54 91.91 329.5 92.02C329.47 92.11 329.58 92.17 329.64 92.23C330.3 92.9 330.97 93.56 331.64 94.23C331.84 94.43 332.04 94.63 332.21 94.86C333.27 96.3 333.68 97.89 333.34 99.66C333.1 100.91 332.52 101.97 331.6 102.83C330.37 103.98 328.91 104.53 327.2 104.45C325.73 104.38 324.48 103.84 323.41 102.86C322.62 102.14 321.89 101.36 321.12 100.61C321.06 100.55 321.01 100.44 320.91 100.48C320.81 100.52 320.85 100.64 320.85 100.72C320.85 101.73 320.85 102.74 320.85 103.75C320.85 104.14 320.83 104.53 320.74 104.92C320.4 106.42 319.6 107.62 318.37 108.53C317.66 109.05 316.86 109.36 316.02 109.57H313.78C313.78 109.57 313.71 109.53 313.67 109.53C312.3 109.23 311.16 108.54 310.27 107.45C309.44 106.43 308.96 105.27 308.95 103.94C308.95 102.86 308.95 101.78 308.95 100.7C308.95 100.59 309.01 100.43 308.89 100.38C308.79 100.34 308.72 100.49 308.64 100.56C307.91 101.29 307.18 102.01 306.45 102.74C306.19 103 305.9 103.21 305.59 103.4C304.26 104.22 302.83 104.51 301.28 104.22C300.02 103.98 298.95 103.4 298.08 102.47C296.92 101.23 296.37 99.76 296.46 98.04C296.52 96.81 296.91 95.71 297.66 94.75C298.38 93.84 299.29 93.1 300.05 92.24C300.11 92.17 300.24 92.12 300.19 92.01C300.15 91.93 300.03 91.96 299.94 91.96C298.95 91.96 297.96 91.95 296.97 91.96C296.39 91.96 295.83 91.85 295.3 91.65C292.49 90.59 290.92 88.15 291.38 84.93C291.6 83.39 292.42 82.17 293.65 81.24C294.7 80.45 295.88 80.02 297.21 80.05C298.2 80.07 299.19 80.05 300.18 80.05C300.26 80.05 300.38 80.09 300.42 79.99C300.46 79.89 300.35 79.84 300.29 79.78C299.7 79.18 299.1 78.59 298.5 77.99C297.41 76.89 296.68 75.62 296.55 74.04C296.44 72.67 296.74 71.4 297.49 70.26C298.84 68.21 301.15 67.17 303.69 67.67C304.82 67.89 305.8 68.4 306.62 69.21C307.31 69.89 308 70.58 308.68 71.27C308.74 71.33 308.79 71.44 308.89 71.4C308.98 71.36 308.94 71.24 308.94 71.16C308.94 70.16 308.94 69.16 308.94 68.16C308.94 66.54 309.6 65.19 310.73 64.06C312.2 62.59 314.03 62.19 316.02 62.49C317.54 62.72 318.75 63.55 319.67 64.77C320.46 65.82 320.88 67 320.84 68.33C320.82 69.24 320.84 70.16 320.84 71.07C320.84 71.16 320.79 71.3 320.9 71.33C321 71.37 321.06 71.24 321.13 71.17C321.86 70.44 322.56 69.68 323.32 68.99C325.11 67.37 327.18 66.95 329.44 67.76C332.07 68.71 333.84 71.44 333.21 74.58C332.99 75.67 332.51 76.62 331.74 77.41C330.97 78.2 330.19 78.97 329.41 79.75C329.34 79.82 329.21 79.88 329.25 79.98C329.29 80.1 329.44 80.04 329.54 80.04C330.6 80.04 331.66 80.04 332.72 80.04C333.07 80.04 333.42 80.06 333.77 80.14C335.33 80.48 336.55 81.32 337.47 82.61C337.95 83.29 338.24 84.06 338.44 84.87L338.46 84.88Z" fill="#2EBC72" fill-opacity="0.3"/>
<path d="M362.04 768.34V770.58C362.04 770.58 362 770.67 361.99 770.72C361.68 772.09 360.98 773.23 359.89 774.11C358.87 774.92 357.72 775.41 356.4 775.42C355.38 775.42 354.36 775.42 353.34 775.42C353.25 775.42 353.12 775.37 353.08 775.48C353.05 775.57 353.16 775.63 353.22 775.69C353.88 776.36 354.55 777.02 355.22 777.69C355.42 777.89 355.62 778.09 355.79 778.32C356.85 779.76 357.26 781.35 356.92 783.12C356.68 784.37 356.1 785.43 355.18 786.29C353.95 787.44 352.49 787.99 350.78 787.91C349.31 787.84 348.06 787.3 346.99 786.32C346.2 785.6 345.47 784.82 344.7 784.07C344.64 784.01 344.59 783.9 344.49 783.94C344.39 783.98 344.43 784.1 344.43 784.18C344.43 785.19 344.43 786.2 344.43 787.21C344.43 787.6 344.41 787.99 344.32 788.38C343.98 789.88 343.18 791.08 341.95 791.99C341.24 792.51 340.44 792.82 339.6 793.03H337.36C337.36 793.03 337.29 792.99 337.25 792.99C335.88 792.69 334.74 792 333.85 790.91C333.02 789.89 332.54 788.73 332.53 787.4C332.53 786.32 332.53 785.24 332.53 784.16C332.53 784.05 332.59 783.89 332.47 783.84C332.37 783.8 332.3 783.95 332.22 784.02C331.49 784.75 330.76 785.47 330.03 786.2C329.77 786.46 329.48 786.67 329.17 786.86C327.84 787.68 326.41 787.97 324.86 787.68C323.6 787.44 322.53 786.86 321.66 785.93C320.5 784.69 319.95 783.22 320.04 781.5C320.1 780.27 320.49 779.17 321.24 778.21C321.96 777.3 322.87 776.56 323.63 775.7C323.69 775.63 323.82 775.58 323.77 775.47C323.73 775.39 323.61 775.42 323.52 775.42C322.53 775.42 321.54 775.41 320.55 775.42C319.97 775.42 319.41 775.31 318.88 775.11C316.07 774.05 314.5 771.61 314.96 768.39C315.18 766.85 316 765.63 317.23 764.7C318.28 763.91 319.46 763.48 320.79 763.51C321.78 763.53 322.77 763.51 323.76 763.51C323.84 763.51 323.96 763.55 324 763.45C324.04 763.35 323.93 763.3 323.87 763.24C323.28 762.64 322.68 762.05 322.08 761.45C320.99 760.35 320.26 759.08 320.13 757.5C320.02 756.13 320.32 754.86 321.07 753.72C322.42 751.67 324.73 750.63 327.27 751.13C328.4 751.35 329.38 751.86 330.2 752.67C330.89 753.35 331.58 754.04 332.26 754.73C332.32 754.79 332.37 754.9 332.47 754.86C332.56 754.82 332.52 754.7 332.52 754.62C332.52 753.62 332.52 752.62 332.52 751.62C332.52 750 333.18 748.65 334.31 747.52C335.78 746.05 337.61 745.65 339.6 745.95C341.12 746.18 342.33 747.01 343.25 748.23C344.04 749.28 344.46 750.46 344.42 751.79C344.4 752.7 344.42 753.62 344.42 754.53C344.42 754.62 344.37 754.76 344.48 754.79C344.58 754.83 344.64 754.7 344.71 754.63C345.44 753.9 346.14 753.14 346.9 752.45C348.69 750.83 350.76 750.41 353.02 751.22C355.65 752.17 357.42 754.9 356.79 758.04C356.57 759.13 356.09 760.08 355.32 760.87C354.55 761.66 353.77 762.43 352.99 763.21C352.92 763.28 352.79 763.34 352.83 763.44C352.87 763.56 353.02 763.5 353.12 763.5C354.18 763.5 355.24 763.5 356.3 763.5C356.65 763.5 357 763.52 357.35 763.6C358.91 763.94 360.13 764.78 361.05 766.07C361.53 766.75 361.82 767.52 362.02 768.33L362.04 768.34Z" fill="#75C1FF" fill-opacity="0.3"/>
<path d="M168.9 578.96V581.2C168.9 581.2 168.86 581.29 168.85 581.34C168.54 582.71 167.84 583.85 166.75 584.73C165.73 585.54 164.58 586.03 163.26 586.04C162.24 586.04 161.22 586.04 160.2 586.04C160.11 586.04 159.98 585.99 159.94 586.1C159.91 586.19 160.02 586.25 160.08 586.31C160.74 586.98 161.41 587.64 162.08 588.31C162.28 588.51 162.48 588.71 162.65 588.94C163.71 590.38 164.12 591.97 163.78 593.74C163.54 594.99 162.96 596.05 162.04 596.91C160.81 598.06 159.35 598.61 157.64 598.53C156.17 598.46 154.92 597.92 153.85 596.94C153.06 596.22 152.33 595.44 151.56 594.69C151.5 594.63 151.45 594.52 151.35 594.56C151.25 594.6 151.29 594.72 151.29 594.8C151.29 595.81 151.29 596.82 151.29 597.83C151.29 598.22 151.27 598.61 151.18 599C150.84 600.5 150.04 601.7 148.81 602.61C148.1 603.13 147.3 603.44 146.46 603.65H144.22C144.22 603.65 144.15 603.61 144.11 603.61C142.74 603.31 141.6 602.62 140.71 601.53C139.88 600.51 139.4 599.35 139.39 598.02C139.39 596.94 139.39 595.86 139.39 594.78C139.39 594.67 139.45 594.51 139.33 594.46C139.23 594.42 139.16 594.57 139.08 594.64C138.35 595.37 137.62 596.09 136.89 596.82C136.63 597.08 136.34 597.29 136.03 597.48C134.7 598.3 133.27 598.59 131.72 598.3C130.46 598.06 129.39 597.48 128.52 596.55C127.36 595.31 126.81 593.84 126.9 592.12C126.96 590.89 127.35 589.79 128.1 588.83C128.82 587.92 129.73 587.18 130.49 586.32C130.55 586.25 130.68 586.2 130.63 586.09C130.59 586.01 130.47 586.04 130.38 586.04C129.39 586.04 128.4 586.03 127.41 586.04C126.83 586.04 126.27 585.93 125.74 585.73C122.93 584.67 121.36 582.23 121.82 579.01C122.04 577.47 122.86 576.25 124.09 575.32C125.14 574.53 126.32 574.1 127.65 574.13C128.64 574.15 129.63 574.13 130.62 574.13C130.7 574.13 130.82 574.17 130.86 574.07C130.9 573.97 130.79 573.92 130.73 573.86C130.14 573.26 129.54 572.67 128.94 572.07C127.85 570.97 127.12 569.7 126.99 568.12C126.88 566.75 127.18 565.48 127.93 564.34C129.28 562.29 131.59 561.25 134.13 561.75C135.26 561.97 136.24 562.48 137.06 563.29C137.75 563.97 138.44 564.66 139.12 565.35C139.18 565.41 139.23 565.52 139.33 565.48C139.42 565.44 139.38 565.32 139.38 565.24C139.38 564.24 139.38 563.24 139.38 562.24C139.38 560.62 140.04 559.27 141.17 558.14C142.64 556.67 144.47 556.27 146.46 556.57C147.98 556.8 149.19 557.63 150.11 558.85C150.9 559.9 151.32 561.08 151.28 562.41C151.26 563.32 151.28 564.24 151.28 565.15C151.28 565.24 151.23 565.38 151.34 565.41C151.44 565.45 151.5 565.32 151.57 565.25C152.3 564.52 153 563.76 153.76 563.07C155.55 561.45 157.62 561.03 159.88 561.84C162.51 562.79 164.28 565.52 163.65 568.66C163.43 569.75 162.95 570.7 162.18 571.49C161.41 572.28 160.63 573.05 159.85 573.83C159.78 573.9 159.65 573.96 159.69 574.06C159.73 574.18 159.88 574.12 159.98 574.12C161.04 574.12 162.1 574.12 163.16 574.12C163.51 574.12 163.86 574.14 164.21 574.22C165.77 574.56 166.99 575.4 167.91 576.69C168.39 577.37 168.68 578.14 168.88 578.95L168.9 578.96Z" fill="#FF8FAA" fill-opacity="0.3"/>
<path d="M202.91 110.66C212.18 110.66 221.44 110.66 230.71 110.66C231.42 110.82 232.13 110.93 232.82 111.15C234.95 111.84 236.76 113.02 238.25 114.68C239.49 116.06 240.38 117.64 240.91 119.42C241.09 120.03 241.21 120.65 241.33 121.27V124.58C241.2 125.28 241.07 125.98 240.85 126.66C240.18 128.72 239.05 130.5 237.46 131.98C235.92 133.41 234.14 134.38 232.11 134.9C231.68 135.01 231.25 135.09 230.83 135.19C231.35 135.29 231.85 135.41 232.35 135.55C234.66 136.2 236.63 137.42 238.23 139.2C239.48 140.58 240.37 142.18 240.9 143.97C241.09 144.6 241.19 145.24 241.32 145.88V149.07C241.3 149.15 241.27 149.23 241.26 149.31C241.17 149.97 241.02 150.62 240.81 151.25C239.97 153.77 238.51 155.85 236.36 157.42C234.34 158.89 232.1 159.76 229.58 159.76C221.08 159.76 212.58 159.76 204.09 159.76C202.68 159.76 201.35 159.49 200.05 158.99C197.81 158.12 195.97 156.71 194.55 154.78C193.33 153.12 192.57 151.26 192.28 149.22C192.16 148.35 192.25 147.48 192.22 146.62C192.2 145.78 192.38 144.97 192.6 144.18C193.1 142.36 193.99 140.73 195.25 139.32C196.81 137.56 198.73 136.34 200.99 135.65C201.56 135.48 202.15 135.37 202.76 135.25C202.7 135.17 202.64 135.17 202.58 135.16C201.95 135.06 201.34 134.92 200.73 134.72C197.85 133.75 195.59 132 193.98 129.41C193.21 128.17 192.69 126.82 192.39 125.38C192.19 124.44 192.25 123.49 192.22 122.54C192.18 121.13 192.48 119.8 192.99 118.5C193.87 116.24 195.29 114.39 197.25 112.96C198.45 112.08 199.76 111.43 201.2 111.05C201.76 110.9 202.34 110.8 202.9 110.67L202.91 110.66Z" fill="#F2672A" fill-opacity="0.3"/>
<path d="M90.07 769.44C99.34 769.44 108.6 769.44 117.87 769.44C118.58 769.6 119.29 769.71 119.98 769.93C122.11 770.62 123.92 771.8 125.41 773.46C126.65 774.84 127.54 776.42 128.07 778.2C128.25 778.81 128.37 779.43 128.49 780.05V783.36C128.36 784.06 128.23 784.76 128.01 785.44C127.34 787.5 126.21 789.28 124.62 790.76C123.08 792.19 121.3 793.16 119.27 793.68C118.84 793.79 118.41 793.87 117.99 793.97C118.51 794.07 119.01 794.19 119.51 794.33C121.82 794.98 123.79 796.2 125.39 797.98C126.64 799.36 127.53 800.96 128.06 802.75C128.25 803.38 128.35 804.02 128.48 804.66V807.85C128.46 807.93 128.43 808.01 128.42 808.09C128.33 808.75 128.18 809.4 127.97 810.03C127.13 812.55 125.67 814.63 123.52 816.2C121.5 817.67 119.26 818.54 116.74 818.54C108.24 818.54 99.74 818.54 91.25 818.54C89.84 818.54 88.51 818.27 87.21 817.77C84.97 816.9 83.13 815.49 81.71 813.56C80.49 811.9 79.73 810.04 79.44 808C79.32 807.13 79.41 806.26 79.38 805.4C79.36 804.56 79.54 803.75 79.76 802.96C80.26 801.14 81.15 799.51 82.41 798.1C83.97 796.34 85.89 795.12 88.15 794.43C88.72 794.26 89.31 794.15 89.92 794.03C89.86 793.95 89.8 793.95 89.74 793.94C89.11 793.84 88.5 793.7 87.89 793.5C85.01 792.53 82.75 790.78 81.14 788.19C80.37 786.95 79.85 785.6 79.55 784.16C79.35 783.22 79.41 782.27 79.38 781.32C79.34 779.91 79.64 778.58 80.15 777.28C81.03 775.02 82.45 773.17 84.41 771.74C85.61 770.86 86.92 770.21 88.36 769.83C88.92 769.68 89.5 769.58 90.06 769.45L90.07 769.44Z" fill="#FF8FAA" fill-opacity="0.3"/>
<path d="M40.13 450.67C49.4 450.67 58.66 450.67 67.93 450.67C68.64 450.83 69.35 450.94 70.04 451.16C72.17 451.85 73.98 453.03 75.47 454.69C76.71 456.07 77.6 457.65 78.13 459.43C78.31 460.04 78.43 460.66 78.55 461.28V464.59C78.42 465.29 78.29 465.99 78.07 466.67C77.4 468.73 76.27 470.51 74.68 471.99C73.14 473.42 71.36 474.39 69.33 474.91C68.9 475.02 68.47 475.1 68.05 475.2C68.57 475.3 69.07 475.42 69.57 475.56C71.88 476.21 73.85 477.43 75.45 479.21C76.7 480.59 77.59 482.19 78.12 483.98C78.31 484.61 78.41 485.25 78.54 485.89V489.08C78.52 489.16 78.49 489.24 78.48 489.32C78.39 489.98 78.24 490.63 78.03 491.26C77.19 493.78 75.73 495.86 73.58 497.43C71.56 498.9 69.32 499.77 66.8 499.77C58.3 499.77 49.8 499.77 41.31 499.77C39.9 499.77 38.57 499.5 37.27 499C35.03 498.13 33.19 496.72 31.77 494.79C30.55 493.13 29.79 491.27 29.5 489.23C29.38 488.36 29.47 487.49 29.44 486.63C29.42 485.79 29.6 484.98 29.82 484.19C30.32 482.37 31.21 480.74 32.47 479.33C34.03 477.57 35.95 476.35 38.21 475.66C38.78 475.49 39.37 475.38 39.98 475.26C39.92 475.18 39.86 475.18 39.8 475.17C39.17 475.07 38.56 474.93 37.95 474.73C35.07 473.76 32.81 472.01 31.2 469.42C30.43 468.18 29.91 466.83 29.61 465.39C29.41 464.45 29.47 463.5 29.44 462.55C29.4 461.14 29.7 459.81 30.21 458.51C31.09 456.25 32.51 454.4 34.47 452.97C35.67 452.09 36.98 451.44 38.42 451.06C38.98 450.91 39.56 450.81 40.12 450.68L40.13 450.67Z" fill="#75C1FF" fill-opacity="0.3"/>
<path d="M310.19 365.99C312.48 365.99 314.77 365.99 317.06 365.99C317.13 366.01 317.2 366.04 317.28 366.05C318.14 366.07 318.98 366.2 319.83 366.31C321.16 366.48 322.47 366.72 323.75 367.11C325.38 367.62 326.79 368.47 327.91 369.77C329.69 371.84 330.01 374.3 329.74 376.88C329.58 378.36 328.83 379.59 327.8 380.63C326.13 382.32 324.05 383.2 321.72 383.52C321.31 383.58 320.91 383.65 320.49 383.64C320.52 383.77 320.6 383.76 320.66 383.78C321.79 384.16 322.85 384.69 323.82 385.39C325.16 386.36 326.26 387.55 326.82 389.14C327.31 390.5 327.52 391.9 327.31 393.36C327.05 395.22 326.19 396.74 324.78 397.94C322.79 399.63 320.39 400.41 317.89 400.97C316.79 401.22 315.68 401.35 314.56 401.43C312.85 401.55 311.14 401.5 309.43 401.46C309.31 401.46 309.18 401.4 309.06 401.48C309.07 401.58 309.15 401.6 309.21 401.64C310 402.1 310.75 402.61 311.45 403.19C313.36 404.78 314.93 406.6 315.53 409.1C315.79 410.18 315.83 411.26 315.56 412.34C315.04 414.35 313.79 415.76 311.92 416.65C310.09 417.52 308.15 417.43 306.22 417.31C304.74 417.22 303.32 416.78 301.92 416.34C298.54 415.28 295.35 413.84 292.45 411.78C290.6 410.46 288.95 408.93 287.73 406.99C286.99 405.81 286.45 404.54 286.25 403.16C286.06 401.87 286.08 400.56 286.38 399.27C286.61 398.27 286.93 397.3 287.47 396.41C288.41 394.87 289.75 393.77 291.32 392.91C293.72 391.6 296.34 391.07 299.01 390.74C300.45 390.56 301.9 390.48 303.35 390.39C303.77 390.36 304.18 390.34 304.67 390.32C304.4 390.18 304.19 390.22 304 390.18C302.8 389.93 301.6 389.67 300.42 389.32C298.09 388.61 295.87 387.69 293.89 386.26C292.67 385.38 291.61 384.35 290.86 383.04C289.8 381.19 289.6 379.2 289.98 377.15C290.33 375.24 291.23 373.6 292.59 372.2C294.06 370.69 295.83 369.62 297.74 368.78C299.43 368.04 301.18 367.49 302.98 367.09C303.88 366.89 304.77 366.7 305.68 366.56C306.54 366.42 307.41 366.3 308.28 366.22C308.93 366.16 309.57 366.09 310.22 366.03L310.19 365.99Z" fill="#FFC453" fill-opacity="0.3"/>
<path d="M63.92 628.54C66.21 628.54 68.5 628.54 70.79 628.54C70.86 628.56 70.93 628.59 71.01 628.6C71.87 628.62 72.71 628.75 73.56 628.86C74.89 629.03 76.2 629.27 77.48 629.66C79.11 630.17 80.52 631.02 81.64 632.32C83.42 634.39 83.74 636.85 83.47 639.43C83.31 640.91 82.56 642.14 81.53 643.18C79.86 644.87 77.78 645.75 75.45 646.07C75.04 646.13 74.64 646.2 74.22 646.19C74.25 646.32 74.33 646.31 74.39 646.33C75.52 646.71 76.58 647.24 77.55 647.94C78.89 648.91 79.99 650.1 80.55 651.69C81.04 653.05 81.25 654.45 81.04 655.91C80.78 657.77 79.92 659.29 78.51 660.49C76.52 662.18 74.12 662.96 71.62 663.52C70.52 663.77 69.41 663.9 68.29 663.98C66.58 664.1 64.87 664.05 63.16 664.01C63.04 664.01 62.91 663.95 62.79 664.03C62.8 664.13 62.88 664.15 62.94 664.19C63.73 664.65 64.48 665.16 65.18 665.74C67.09 667.33 68.66 669.15 69.26 671.65C69.52 672.73 69.56 673.81 69.29 674.89C68.77 676.9 67.52 678.31 65.65 679.2C63.82 680.07 61.88 679.98 59.95 679.86C58.47 679.77 57.05 679.33 55.65 678.89C52.27 677.83 49.08 676.39 46.18 674.33C44.33 673.01 42.68 671.48 41.46 669.54C40.72 668.36 40.18 667.09 39.98 665.71C39.79 664.42 39.81 663.11 40.11 661.82C40.34 660.82 40.66 659.85 41.2 658.96C42.14 657.42 43.48 656.32 45.05 655.46C47.45 654.15 50.07 653.62 52.74 653.29C54.18 653.11 55.63 653.03 57.08 652.94C57.5 652.91 57.91 652.89 58.4 652.87C58.13 652.73 57.92 652.77 57.73 652.73C56.53 652.48 55.33 652.22 54.15 651.87C51.82 651.16 49.6 650.24 47.62 648.81C46.4 647.93 45.34 646.9 44.59 645.59C43.53 643.74 43.33 641.75 43.71 639.7C44.06 637.79 44.96 636.15 46.32 634.75C47.79 633.24 49.56 632.17 51.47 631.33C53.16 630.59 54.91 630.04 56.71 629.64C57.61 629.44 58.5 629.25 59.41 629.11C60.27 628.97 61.14 628.85 62.01 628.77C62.66 628.71 63.3 628.64 63.95 628.58L63.92 628.54Z" fill="#FFC453" fill-opacity="0.3"/>
<path d="M103.44 135.61H105.75C106 135.72 106.27 135.65 106.52 135.69C107.84 135.91 109.15 136.15 110.44 136.52C114.16 137.61 117.43 139.48 120.29 142.08C122.19 143.8 123.77 145.79 125.06 148.01C126.95 151.26 128.07 154.75 128.33 158.5C128.47 160.4 128.44 162.29 128.16 164.19C127.95 165.58 127.65 166.94 127.21 168.28C126.18 171.44 124.58 174.28 122.42 176.81C120.31 179.27 117.84 181.27 114.96 182.75C111.56 184.51 107.97 185.53 104.11 185.51C103.43 185.51 103.43 185.51 103.43 184.83C103.43 177.98 103.43 171.13 103.43 164.28C103.43 164.14 103.43 163.99 103.43 163.85C103.35 163.93 103.33 164.01 103.32 164.1C103.2 165.13 102.97 166.14 102.7 167.15C101.56 171.37 99.41 175.01 96.37 178.13C94.62 179.93 92.62 181.42 90.4 182.6C86.9 184.46 83.18 185.54 79.18 185.52C78.55 185.52 78.55 185.52 78.55 184.89C78.55 171.33 78.55 157.76 78.55 144.2C78.55 141.34 78.55 138.48 78.55 135.63H80.92C81.58 135.75 82.25 135.81 82.92 135.92C84.45 136.19 85.94 136.59 87.39 137.14C90.29 138.24 92.89 139.82 95.21 141.88C97.11 143.57 98.72 145.51 100.03 147.69C101.63 150.36 102.73 153.23 103.23 156.31C103.28 156.62 103.34 156.93 103.39 157.24H103.45V135.63L103.44 135.61Z" fill="#FF8FAA" fill-opacity="0.3"/>
<path d="M354.71 506.57H357.02C357.27 506.68 357.54 506.61 357.79 506.65C359.11 506.87 360.42 507.11 361.71 507.48C365.43 508.57 368.7 510.44 371.56 513.04C373.46 514.76 375.04 516.75 376.33 518.97C378.22 522.22 379.34 525.71 379.6 529.46C379.74 531.36 379.71 533.25 379.43 535.15C379.22 536.54 378.92 537.9 378.48 539.24C377.45 542.4 375.85 545.24 373.69 547.77C371.58 550.23 369.11 552.23 366.23 553.71C362.83 555.47 359.24 556.49 355.38 556.47C354.7 556.47 354.7 556.47 354.7 555.79C354.7 548.94 354.7 542.09 354.7 535.24C354.7 535.1 354.7 534.95 354.7 534.81C354.62 534.89 354.6 534.97 354.59 535.06C354.47 536.09 354.24 537.1 353.97 538.11C352.83 542.33 350.68 545.97 347.64 549.09C345.89 550.89 343.89 552.38 341.67 553.56C338.17 555.42 334.45 556.5 330.45 556.48C329.82 556.48 329.82 556.48 329.82 555.85C329.82 542.29 329.82 528.72 329.82 515.16C329.82 512.3 329.82 509.44 329.82 506.59H332.19C332.85 506.71 333.52 506.77 334.19 506.88C335.72 507.15 337.21 507.55 338.66 508.1C341.56 509.2 344.16 510.78 346.48 512.84C348.38 514.53 349.99 516.47 351.3 518.65C352.9 521.32 354 524.19 354.5 527.27C354.55 527.58 354.61 527.89 354.66 528.2H354.72V506.59L354.71 506.57Z" fill="#F2672A" fill-opacity="0.3"/>
<path d="M-21.97 353.3H-19.66C-19.41 353.41 -19.14 353.34 -18.89 353.38C-17.57 353.6 -16.26 353.84 -14.97 354.21C-11.25 355.3 -7.97998 357.17 -5.11998 359.77C-3.21998 361.49 -1.63998 363.48 -0.349983 365.7C1.54002 368.95 2.66002 372.44 2.92001 376.19C3.06001 378.09 3.03001 379.98 2.75002 381.88C2.54002 383.27 2.24001 384.63 1.80001 385.97C0.770016 389.13 -0.829983 391.97 -2.98998 394.5C-5.09998 396.96 -7.56998 398.96 -10.45 400.44C-13.85 402.2 -17.44 403.22 -21.3 403.2C-21.98 403.2 -21.98 403.2 -21.98 402.52C-21.98 395.67 -21.98 388.82 -21.98 381.97C-21.98 381.83 -21.98 381.68 -21.98 381.54C-22.06 381.62 -22.08 381.7 -22.09 381.79C-22.21 382.82 -22.44 383.83 -22.71 384.84C-23.85 389.06 -26 392.7 -29.04 395.82C-30.79 397.62 -32.79 399.11 -35.01 400.29C-38.51 402.15 -42.23 403.23 -46.23 403.21C-46.86 403.21 -46.86 403.21 -46.86 402.58C-46.86 389.02 -46.86 375.45 -46.86 361.89C-46.86 359.03 -46.86 356.17 -46.86 353.32H-44.49C-43.83 353.44 -43.16 353.5 -42.49 353.61C-40.96 353.88 -39.47 354.28 -38.02 354.83C-35.12 355.93 -32.52 357.51 -30.2 359.57C-28.3 361.26 -26.69 363.2 -25.38 365.38C-23.78 368.05 -22.68 370.92 -22.18 374C-22.13 374.31 -22.07 374.62 -22.02 374.93H-21.96V353.32L-21.97 353.3Z" fill="#FF8FAA" fill-opacity="0.3"/>
<path d="M202.72 329.33C202.72 328.76 202.85 328.21 202.93 327.64C202.98 327.27 203.04 326.89 203.08 326.52C203.19 325.47 203.39 324.43 203.5 323.37C203.61 322.34 203.84 321.32 203.96 320.29C204.04 319.55 204.17 318.82 204.25 318.08C204.33 317.33 204.48 316.59 204.58 315.84C204.68 315.11 204.77 314.38 204.87 313.66C204.93 313.2 205 312.75 205.08 312.29C205.14 311.94 205.17 311.58 205.23 311.23C205.4 310.18 205.51 309.13 205.64 308.08C205.67 307.84 205.82 307.61 205.71 307.33C205.46 307.49 205.34 307.75 205.18 307.96C203.76 309.83 202.36 311.71 200.95 313.59C199.59 315.39 198.23 317.18 196.87 318.98C195.58 320.69 194.3 322.4 193.02 324.1C192.85 324.33 192.69 324.56 192.51 324.78C192.28 325.06 192.22 325.06 191.97 324.8C190.53 323.36 189.09 321.92 187.66 320.49C187.21 320.04 186.77 319.59 186.32 319.15C186.12 318.95 186.12 318.82 186.35 318.65C188.26 317.22 190.17 315.77 192.07 314.33C193.88 312.96 195.68 311.59 197.48 310.23C199.35 308.82 201.22 307.42 203.09 306.02C203.33 305.84 203.57 305.65 203.83 305.46C203.71 305.34 203.59 305.36 203.49 305.39C203.2 305.47 202.91 305.48 202.62 305.52C201.58 305.66 200.55 305.84 199.51 305.99C198.76 306.1 198.01 306.17 197.26 306.27C196.53 306.37 195.81 306.5 195.08 306.61C194.72 306.66 194.35 306.71 193.99 306.76C192.81 306.91 191.64 307.07 190.47 307.26C189.72 307.38 188.97 307.44 188.22 307.54C187.49 307.64 186.77 307.77 186.04 307.87C185.28 307.98 184.52 308.07 183.76 308.17C183.31 308.23 182.87 308.31 182.42 308.38C182.34 308.39 182.25 308.41 182.17 308.42C181.9 308.46 181.79 308.35 181.8 308.07C181.81 306.82 181.8 305.56 181.8 304.31C181.8 302.91 181.8 301.51 181.8 300.11C181.8 299.73 181.87 299.67 182.25 299.72C183.29 299.87 184.32 300.04 185.36 300.19C186.11 300.3 186.86 300.37 187.61 300.47C188.34 300.57 189.06 300.69 189.79 300.8C190.54 300.91 191.29 301 192.04 301.1C192.8 301.21 193.55 301.33 194.31 301.43C195.02 301.53 195.72 301.62 196.43 301.72C197.25 301.84 198.07 301.96 198.89 302.07C199.61 302.17 200.33 302.26 201.04 302.36C201.81 302.47 202.58 302.58 203.34 302.7C203.49 302.72 203.63 302.76 203.77 302.72C203.79 302.6 203.7 302.56 203.64 302.51C201.78 301.11 199.92 299.72 198.06 298.32C196.25 296.96 194.45 295.58 192.65 294.22C190.78 292.81 188.9 291.4 187.02 289.99C186.82 289.84 186.62 289.68 186.42 289.52C186.173 289.327 186.163 289.113 186.39 288.88C187.44 287.83 188.49 286.78 189.54 285.73C190.34 284.93 191.15 284.12 191.95 283.32C192.23 283.04 192.26 283.05 192.5 283.37C194.19 285.6 195.87 287.84 197.56 290.07C199.18 292.21 200.8 294.35 202.42 296.49C203.45 297.85 204.47 299.22 205.49 300.58C205.54 300.65 205.58 300.75 205.7 300.76C205.79 300.68 205.76 300.58 205.74 300.5C205.57 299.77 205.54 299.02 205.41 298.29C205.28 297.57 205.22 296.83 205.12 296.1C205.02 295.37 204.91 294.65 204.81 293.92C204.74 293.44 204.68 292.96 204.61 292.48C204.5 291.74 204.4 291.01 204.28 290.27C204.22 289.9 204.19 289.52 204.13 289.14C203.97 288.1 203.88 287.05 203.71 286.02C203.53 284.97 203.42 283.92 203.26 282.87C203.1 281.82 202.98 280.77 202.84 279.72C202.81 279.5 202.72 279.3 202.72 279.07C202.72 278.86 202.79 278.76 203.01 278.76C203.27 278.76 203.54 278.76 203.8 278.76C206.19 278.76 208.58 278.76 210.98 278.76C211.44 278.76 211.5 278.83 211.42 279.27C211.22 280.44 211.07 281.62 210.92 282.79C210.79 283.83 210.6 284.86 210.45 285.9C210.34 286.64 210.27 287.38 210.17 288.12C210.07 288.88 209.94 289.63 209.83 290.39C209.78 290.74 209.73 291.1 209.68 291.45C209.56 292.32 209.44 293.2 209.31 294.07C209.15 295.11 209.04 296.15 208.9 297.19C208.75 298.24 208.59 299.29 208.43 300.34C208.41 300.47 208.37 300.61 208.44 300.74C208.57 300.74 208.61 300.62 208.67 300.54C210.21 298.51 211.74 296.48 213.28 294.44C214.69 292.56 216.1 290.68 217.51 288.81C218.9 286.97 220.3 285.14 221.68 283.29C221.85 283.06 221.98 283.06 222.18 283.26C224.07 285.16 225.96 287.05 227.86 288.94C228.06 289.14 228.05 289.27 227.83 289.44C225.92 290.87 224.01 292.32 222.11 293.76C220.14 295.25 218.17 296.75 216.19 298.24C214.32 299.65 212.45 301.05 210.58 302.45C210.51 302.51 210.42 302.55 210.38 302.65C210.43 302.76 210.53 302.73 210.6 302.72C211.34 302.61 212.07 302.49 212.81 302.39C213.52 302.29 214.22 302.2 214.93 302.1C215.71 301.99 216.49 301.88 217.27 301.78C218.04 301.67 218.81 301.57 219.58 301.47C220.28 301.37 220.97 301.27 221.67 301.17C222.47 301.06 223.27 300.95 224.07 300.83C224.81 300.73 225.55 300.62 226.28 300.52C227.03 300.41 227.78 300.31 228.53 300.2C229.32 300.09 230.11 299.95 230.9 299.87C231.39 299.82 231.87 299.69 232.37 299.7V308.43C232.18 308.42 231.99 308.43 231.8 308.39C231.07 308.28 230.35 308.16 229.62 308.06C228.57 307.92 227.51 307.81 226.47 307.64C226.1 307.58 225.72 307.55 225.35 307.49C224.62 307.37 223.88 307.27 223.14 307.16C222.67 307.09 222.2 307.03 221.74 306.97C220.97 306.86 220.2 306.76 219.43 306.65C218.72 306.55 218.01 306.46 217.31 306.36C216.56 306.25 215.82 306.13 215.07 306.02C214.32 305.92 213.57 305.83 212.83 305.73C212.1 305.63 211.38 305.5 210.65 305.4C210.56 305.39 210.46 305.36 210.39 305.45C210.39 305.53 210.45 305.56 210.5 305.6C212 306.73 213.49 307.85 214.99 308.98C216.54 310.14 218.08 311.31 219.63 312.48C221.17 313.64 222.71 314.8 224.25 315.96C225.44 316.85 226.62 317.74 227.8 318.64C228.1 318.87 228.1 318.94 227.83 319.21C226.97 320.08 226.1 320.94 225.24 321.8C224.22 322.82 223.2 323.84 222.18 324.86C221.99 325.05 221.85 325.06 221.69 324.85C221.65 324.79 221.6 324.73 221.55 324.68C220.01 322.63 218.47 320.57 216.92 318.52C215.56 316.71 214.18 314.91 212.82 313.11C211.53 311.4 210.26 309.69 208.96 307.99C208.8 307.78 208.69 307.52 208.42 307.36C208.38 307.53 208.39 307.66 208.42 307.79C208.55 308.2 208.55 308.64 208.62 309.06C208.79 310.1 208.88 311.16 209.05 312.21C209.11 312.55 209.13 312.9 209.19 313.24C209.28 313.69 209.33 314.15 209.39 314.61C209.45 315.04 209.49 315.46 209.55 315.89C209.66 316.62 209.79 317.34 209.89 318.06C209.99 318.81 210.06 319.56 210.17 320.31C210.32 321.35 210.5 322.38 210.64 323.42C210.79 324.49 210.9 325.56 211.05 326.63C211.1 326.96 211.13 327.3 211.19 327.63C211.29 328.21 211.39 328.79 211.41 329.38H202.68L202.72 329.33Z" fill="#FF8FAA" fill-opacity="0.3"/>
<path d="M-14.9099 135.95C-14.9099 135.38 -14.7799 134.83 -14.6999 134.26C-14.6499 133.89 -14.5899 133.51 -14.5499 133.14C-14.4399 132.09 -14.2399 131.05 -14.1299 129.99C-14.0199 128.96 -13.7899 127.94 -13.6699 126.91C-13.5899 126.17 -13.4599 125.44 -13.3799 124.7C-13.2999 123.95 -13.1499 123.21 -13.0499 122.46C-12.9499 121.73 -12.8599 121 -12.7599 120.28C-12.6999 119.82 -12.6299 119.37 -12.5499 118.91C-12.4899 118.56 -12.4599 118.2 -12.3999 117.85C-12.2299 116.8 -12.1199 115.75 -11.9899 114.7C-11.9599 114.46 -11.8099 114.23 -11.9199 113.95C-12.1699 114.11 -12.2899 114.37 -12.4499 114.58C-13.8699 116.45 -15.2699 118.33 -16.6799 120.21C-18.0399 122.01 -19.3999 123.8 -20.7599 125.6C-22.0499 127.31 -23.3299 129.02 -24.6099 130.72C-24.7799 130.95 -24.9399 131.18 -25.1199 131.4C-25.3499 131.68 -25.4099 131.68 -25.6599 131.42C-27.0999 129.98 -28.5399 128.54 -29.9699 127.11C-30.4199 126.66 -30.8599 126.21 -31.3099 125.77C-31.5099 125.57 -31.5099 125.44 -31.2799 125.27C-29.3699 123.84 -27.4599 122.39 -25.5599 120.95C-23.7499 119.58 -21.9499 118.21 -20.1499 116.85C-18.2799 115.44 -16.4099 114.04 -14.5399 112.64C-14.2999 112.46 -14.0599 112.27 -13.7999 112.08C-13.9199 111.96 -14.0399 111.98 -14.1399 112.01C-14.4299 112.09 -14.7199 112.1 -15.0099 112.14C-16.0499 112.28 -17.0799 112.46 -18.1199 112.61C-18.8699 112.72 -19.6199 112.79 -20.3699 112.89C-21.0999 112.99 -21.8199 113.12 -22.5499 113.23C-22.9099 113.28 -23.2799 113.33 -23.6399 113.38C-24.8199 113.53 -25.9899 113.69 -27.1599 113.88C-27.9099 114 -28.6599 114.06 -29.4099 114.16C-30.1399 114.26 -30.8599 114.39 -31.5899 114.49C-32.3499 114.6 -33.1099 114.69 -33.8699 114.79C-34.3199 114.85 -34.7599 114.93 -35.2099 115C-35.2899 115.01 -35.3799 115.03 -35.4599 115.04C-35.7299 115.08 -35.8399 114.97 -35.8299 114.69C-35.8199 113.44 -35.8299 112.18 -35.8299 110.93C-35.8299 109.53 -35.8299 108.13 -35.8299 106.73C-35.8299 106.35 -35.7599 106.29 -35.3799 106.34C-34.3399 106.49 -33.3099 106.66 -32.2699 106.81C-31.5199 106.92 -30.7699 106.99 -30.0199 107.09C-29.2899 107.19 -28.5699 107.31 -27.8399 107.42C-27.0899 107.53 -26.3399 107.62 -25.5899 107.72C-24.8299 107.83 -24.0799 107.95 -23.3199 108.05C-22.6099 108.15 -21.9099 108.24 -21.1999 108.34C-20.3799 108.46 -19.5599 108.58 -18.7399 108.69C-18.0199 108.79 -17.2999 108.88 -16.5899 108.98C-15.8199 109.09 -15.0499 109.2 -14.2899 109.32C-14.1399 109.34 -13.9999 109.38 -13.8599 109.34C-13.8399 109.22 -13.9299 109.18 -13.9899 109.13C-15.8499 107.73 -17.7099 106.34 -19.5699 104.94C-21.3799 103.58 -23.1799 102.2 -24.9799 100.84C-26.8499 99.43 -28.7299 98.02 -30.6099 96.61C-30.8099 96.46 -31.0099 96.3 -31.2099 96.14C-31.4566 95.9467 -31.4666 95.7333 -31.2399 95.5C-30.1899 94.45 -29.1399 93.4 -28.0899 92.35C-27.2899 91.55 -26.4799 90.74 -25.6799 89.94C-25.3999 89.66 -25.3699 89.67 -25.1299 89.99C-23.4399 92.22 -21.7599 94.46 -20.0699 96.69C-18.4499 98.83 -16.8299 100.97 -15.2099 103.11C-14.1799 104.47 -13.1599 105.84 -12.1399 107.2C-12.0899 107.27 -12.0499 107.37 -11.9299 107.38C-11.8399 107.3 -11.8699 107.2 -11.8899 107.12C-12.0599 106.39 -12.0899 105.64 -12.2199 104.91C-12.3499 104.19 -12.4099 103.45 -12.5099 102.72C-12.6099 101.99 -12.7199 101.27 -12.8199 100.54C-12.8899 100.06 -12.9499 99.58 -13.0199 99.1C-13.1299 98.36 -13.2299 97.63 -13.3499 96.89C-13.4099 96.52 -13.4399 96.14 -13.4999 95.76C-13.6599 94.72 -13.7499 93.67 -13.9199 92.64C-14.0999 91.59 -14.2099 90.54 -14.3699 89.49C-14.5299 88.44 -14.6499 87.39 -14.7899 86.34C-14.8199 86.12 -14.9099 85.92 -14.9099 85.69C-14.9099 85.48 -14.8399 85.38 -14.6199 85.38C-14.3599 85.38 -14.0899 85.38 -13.8299 85.38C-11.4399 85.38 -9.04994 85.38 -6.64994 85.38C-6.18995 85.38 -6.12994 85.45 -6.20994 85.89C-6.40994 87.06 -6.55994 88.24 -6.70994 89.41C-6.83994 90.45 -7.02995 91.48 -7.17994 92.52C-7.28995 93.26 -7.35994 94 -7.45994 94.74C-7.55994 95.5 -7.68994 96.25 -7.79994 97.01C-7.84994 97.36 -7.89994 97.72 -7.94994 98.07C-8.06994 98.94 -8.18995 99.82 -8.31994 100.69C-8.47994 101.73 -8.58994 102.77 -8.72994 103.81C-8.87994 104.86 -9.03994 105.91 -9.19994 106.96C-9.21994 107.09 -9.25994 107.23 -9.18995 107.36C-9.05995 107.36 -9.01994 107.24 -8.95994 107.16C-7.41994 105.13 -5.88995 103.1 -4.34995 101.06C-2.93995 99.18 -1.52995 97.3 -0.119946 95.43C1.27005 93.59 2.67006 91.76 4.05006 89.91C4.22005 89.68 4.35006 89.68 4.55006 89.88C6.44006 91.78 8.33006 93.67 10.2301 95.56C10.4301 95.76 10.4201 95.89 10.2001 96.06C8.29006 97.49 6.38006 98.94 4.48006 100.38C2.51006 101.87 0.540054 103.37 -1.43995 104.86C-3.30994 106.27 -5.17994 107.67 -7.04994 109.07C-7.11994 109.13 -7.20994 109.17 -7.24994 109.27C-7.19995 109.38 -7.09994 109.35 -7.02994 109.34C-6.28994 109.23 -5.55994 109.11 -4.81994 109.01C-4.10995 108.91 -3.40994 108.82 -2.69994 108.72C-1.91994 108.61 -1.13994 108.5 -0.359943 108.4C0.410057 108.29 1.18005 108.19 1.95005 108.09C2.65005 107.99 3.34005 107.89 4.04005 107.79C4.84005 107.68 5.64006 107.57 6.44006 107.45C7.18006 107.35 7.92006 107.24 8.65005 107.14C9.40005 107.03 10.1501 106.93 10.9001 106.82C11.6901 106.71 12.4801 106.57 13.2701 106.49C13.7601 106.44 14.2401 106.31 14.7401 106.32V115.05C14.5501 115.04 14.3601 115.05 14.1701 115.01C13.4401 114.9 12.7201 114.78 11.9901 114.68C10.9401 114.54 9.88006 114.43 8.84006 114.26C8.47006 114.2 8.09005 114.17 7.72005 114.11C6.99006 113.99 6.25006 113.89 5.51006 113.78C5.04005 113.71 4.57005 113.65 4.11005 113.59C3.34005 113.48 2.57006 113.38 1.80006 113.27C1.09006 113.17 0.380054 113.08 -0.319946 112.98C-1.06995 112.87 -1.80994 112.75 -2.55994 112.64C-3.30994 112.54 -4.05994 112.45 -4.79994 112.35C-5.52994 112.25 -6.24994 112.12 -6.97994 112.02C-7.06994 112.01 -7.16994 111.98 -7.23994 112.07C-7.23994 112.15 -7.17994 112.18 -7.12994 112.22C-5.62994 113.35 -4.13995 114.47 -2.63995 115.6C-1.08995 116.76 0.450058 117.93 2.00006 119.1C3.54006 120.26 5.08006 121.42 6.62006 122.58C7.81005 123.47 8.99006 124.36 10.1701 125.26C10.4701 125.49 10.4701 125.56 10.2001 125.83C9.34006 126.7 8.47005 127.56 7.61005 128.42C6.59005 129.44 5.57006 130.46 4.55006 131.48C4.36006 131.67 4.22005 131.68 4.06005 131.47C4.02005 131.41 3.97005 131.35 3.92006 131.3C2.38005 129.25 0.840054 127.19 -0.709946 125.14C-2.06995 123.33 -3.44994 121.53 -4.80994 119.73C-6.09995 118.02 -7.36995 116.31 -8.66994 114.61C-8.82994 114.4 -8.93994 114.14 -9.20994 113.98C-9.24994 114.15 -9.23994 114.28 -9.20994 114.41C-9.07994 114.82 -9.07994 115.26 -9.00994 115.68C-8.83994 116.72 -8.74994 117.78 -8.57994 118.83C-8.51995 119.17 -8.49994 119.52 -8.43995 119.86C-8.34995 120.31 -8.29994 120.77 -8.23994 121.23C-8.17994 121.66 -8.13994 122.08 -8.07994 122.51C-7.96994 123.24 -7.83994 123.96 -7.73994 124.68C-7.63994 125.43 -7.56994 126.18 -7.45994 126.93C-7.30994 127.97 -7.12994 129 -6.98994 130.04C-6.83994 131.11 -6.72994 132.18 -6.57994 133.25C-6.52995 133.58 -6.49994 133.92 -6.43995 134.25C-6.33994 134.83 -6.23994 135.41 -6.21994 136H-14.9099V135.95Z" fill="#75C1FF" fill-opacity="0.3"/>
<path d="M271.05 654.23C271.05 653.66 271.18 653.11 271.26 652.54C271.31 652.17 271.37 651.79 271.41 651.42C271.52 650.37 271.72 649.33 271.83 648.27C271.94 647.24 272.17 646.22 272.29 645.19C272.37 644.45 272.5 643.72 272.58 642.98C272.66 642.23 272.81 641.49 272.91 640.74C273.01 640.01 273.1 639.28 273.2 638.56C273.26 638.1 273.33 637.65 273.41 637.19C273.47 636.84 273.5 636.48 273.56 636.13C273.73 635.08 273.84 634.03 273.97 632.98C274 632.74 274.15 632.51 274.04 632.23C273.79 632.39 273.67 632.65 273.51 632.86C272.09 634.73 270.69 636.61 269.28 638.49C267.92 640.29 266.56 642.08 265.2 643.88C263.91 645.59 262.63 647.3 261.35 649C261.18 649.23 261.02 649.46 260.84 649.68C260.61 649.96 260.55 649.96 260.3 649.7C258.86 648.26 257.42 646.82 255.99 645.39C255.54 644.94 255.1 644.49 254.65 644.05C254.45 643.85 254.45 643.72 254.68 643.55C256.59 642.12 258.5 640.67 260.4 639.23C262.21 637.86 264.01 636.49 265.81 635.13C267.68 633.72 269.55 632.32 271.42 630.92C271.66 630.74 271.9 630.55 272.16 630.36C272.04 630.24 271.92 630.26 271.82 630.29C271.53 630.37 271.24 630.38 270.95 630.42C269.91 630.56 268.88 630.74 267.84 630.89C267.09 631 266.34 631.07 265.59 631.17C264.86 631.27 264.14 631.4 263.41 631.51C263.05 631.56 262.68 631.61 262.32 631.66C261.14 631.81 259.97 631.97 258.8 632.16C258.05 632.28 257.3 632.34 256.55 632.44C255.82 632.54 255.1 632.67 254.37 632.77C253.61 632.88 252.85 632.97 252.09 633.07C251.64 633.13 251.2 633.21 250.75 633.28C250.67 633.29 250.58 633.31 250.5 633.32C250.23 633.36 250.12 633.25 250.13 632.97C250.14 631.72 250.13 630.46 250.13 629.21C250.13 627.81 250.13 626.41 250.13 625.01C250.13 624.63 250.2 624.57 250.58 624.62C251.62 624.77 252.65 624.94 253.69 625.09C254.44 625.2 255.19 625.27 255.94 625.37C256.67 625.47 257.39 625.59 258.12 625.7C258.87 625.81 259.62 625.9 260.37 626C261.13 626.11 261.88 626.23 262.64 626.33C263.35 626.43 264.05 626.52 264.76 626.62C265.58 626.74 266.4 626.86 267.22 626.97C267.94 627.07 268.66 627.16 269.37 627.26C270.14 627.37 270.91 627.48 271.67 627.6C271.82 627.62 271.96 627.66 272.1 627.62C272.12 627.5 272.03 627.46 271.97 627.41C270.11 626.01 268.25 624.62 266.39 623.22C264.58 621.86 262.78 620.48 260.98 619.12C259.11 617.71 257.23 616.3 255.35 614.89C255.15 614.74 254.95 614.58 254.75 614.42C254.503 614.227 254.493 614.013 254.72 613.78C255.77 612.73 256.82 611.68 257.87 610.63C258.67 609.83 259.48 609.02 260.28 608.22C260.56 607.94 260.59 607.95 260.83 608.27C262.52 610.5 264.2 612.74 265.89 614.97C267.51 617.11 269.13 619.25 270.75 621.39C271.78 622.75 272.8 624.12 273.82 625.48C273.87 625.55 273.91 625.65 274.03 625.66C274.12 625.58 274.09 625.48 274.07 625.4C273.9 624.67 273.87 623.92 273.74 623.19C273.61 622.47 273.55 621.73 273.45 621C273.35 620.27 273.24 619.55 273.14 618.82C273.07 618.34 273.01 617.86 272.94 617.38C272.83 616.64 272.73 615.91 272.61 615.17C272.55 614.8 272.52 614.42 272.46 614.04C272.3 613 272.21 611.95 272.04 610.92C271.86 609.87 271.75 608.82 271.59 607.77C271.43 606.72 271.31 605.67 271.17 604.62C271.14 604.4 271.05 604.2 271.05 603.97C271.05 603.76 271.12 603.66 271.34 603.66C271.6 603.66 271.87 603.66 272.13 603.66C274.52 603.66 276.91 603.66 279.31 603.66C279.77 603.66 279.83 603.73 279.75 604.17C279.55 605.34 279.4 606.52 279.25 607.69C279.12 608.73 278.93 609.76 278.78 610.8C278.67 611.54 278.6 612.28 278.5 613.02C278.4 613.78 278.27 614.53 278.16 615.29C278.11 615.64 278.06 616 278.01 616.35C277.89 617.22 277.77 618.1 277.64 618.97C277.48 620.01 277.37 621.05 277.23 622.09C277.08 623.14 276.92 624.19 276.76 625.24C276.74 625.37 276.7 625.51 276.77 625.64C276.9 625.64 276.94 625.52 277 625.44C278.54 623.41 280.07 621.38 281.61 619.34C283.02 617.46 284.43 615.58 285.84 613.71C287.23 611.87 288.63 610.04 290.01 608.19C290.18 607.96 290.31 607.96 290.51 608.16C292.4 610.06 294.29 611.95 296.19 613.84C296.39 614.04 296.38 614.17 296.16 614.34C294.25 615.77 292.34 617.22 290.44 618.66C288.47 620.15 286.5 621.65 284.52 623.14C282.65 624.55 280.78 625.95 278.91 627.35C278.84 627.41 278.75 627.45 278.71 627.55C278.76 627.66 278.86 627.63 278.93 627.62C279.67 627.51 280.4 627.39 281.14 627.29C281.85 627.19 282.55 627.1 283.26 627C284.04 626.89 284.82 626.78 285.6 626.68C286.37 626.57 287.14 626.47 287.91 626.37C288.61 626.27 289.3 626.17 290 626.07C290.8 625.96 291.6 625.85 292.4 625.73C293.14 625.63 293.88 625.52 294.61 625.42C295.36 625.31 296.11 625.21 296.86 625.1C297.65 624.99 298.44 624.85 299.23 624.77C299.72 624.72 300.2 624.59 300.7 624.6V633.33C300.51 633.32 300.32 633.33 300.13 633.29C299.4 633.18 298.68 633.06 297.95 632.96C296.9 632.82 295.84 632.71 294.8 632.54C294.43 632.48 294.05 632.45 293.68 632.39C292.95 632.27 292.21 632.17 291.47 632.06C291 631.99 290.53 631.93 290.07 631.87C289.3 631.76 288.53 631.66 287.76 631.55C287.05 631.45 286.34 631.36 285.64 631.26C284.89 631.15 284.15 631.03 283.4 630.92C282.65 630.82 281.9 630.73 281.16 630.63C280.43 630.53 279.71 630.4 278.98 630.3C278.89 630.29 278.79 630.26 278.72 630.35C278.72 630.43 278.78 630.46 278.83 630.5C280.33 631.63 281.82 632.75 283.32 633.88C284.87 635.04 286.41 636.21 287.96 637.38C289.5 638.54 291.04 639.7 292.58 640.86C293.77 641.75 294.95 642.64 296.13 643.54C296.43 643.77 296.43 643.84 296.16 644.11C295.3 644.98 294.43 645.84 293.57 646.7C292.55 647.72 291.53 648.74 290.51 649.76C290.32 649.95 290.18 649.96 290.02 649.75C289.98 649.69 289.93 649.63 289.88 649.58C288.34 647.53 286.8 645.47 285.25 643.42C283.89 641.61 282.51 639.81 281.15 638.01C279.86 636.3 278.59 634.59 277.29 632.89C277.13 632.68 277.02 632.42 276.75 632.26C276.71 632.43 276.72 632.56 276.75 632.69C276.88 633.1 276.88 633.54 276.95 633.96C277.12 635 277.21 636.06 277.38 637.11C277.44 637.45 277.46 637.8 277.52 638.14C277.61 638.59 277.66 639.05 277.72 639.51C277.78 639.94 277.82 640.36 277.88 640.79C277.99 641.52 278.12 642.24 278.22 642.96C278.32 643.71 278.39 644.46 278.5 645.21C278.65 646.25 278.83 647.28 278.97 648.32C279.12 649.39 279.23 650.46 279.38 651.53C279.43 651.86 279.46 652.2 279.52 652.53C279.62 653.11 279.72 653.69 279.74 654.28H271.01L271.05 654.23Z" fill="#2EBC72" fill-opacity="0.3"/>
<path d="M38.13 254.55C38.6 254.38 39.11 254.32 39.59 254.21C40.82 253.93 42.04 253.62 43.25 253.26C44.84 252.79 46.4 252.24 47.91 251.55C50.21 250.5 52.34 249.19 54.19 247.45C55.99 245.76 57.41 243.8 58.55 241.61C59.54 239.72 60.28 237.73 60.89 235.68C61.29 234.34 61.61 232.99 61.93 231.63C62 231.34 62.04 231.04 62.1 230.75C62.12 230.66 62.13 230.52 62.26 230.52C62.39 230.52 62.4 230.65 62.42 230.74C62.59 231.66 62.81 232.56 63.03 233.47C63.38 234.9 63.8 236.31 64.29 237.7C65.06 239.88 66.03 241.96 67.31 243.88C67.91 244.78 68.59 245.63 69.33 246.43C70.54 247.73 71.9 248.85 73.4 249.81C74.95 250.79 76.6 251.58 78.3 252.24C79.98 252.89 81.69 253.41 83.44 253.83C84.32 254.04 85.2 254.27 86.1 254.43C86.21 254.45 86.34 254.47 86.35 254.6C86.35 254.75 86.2 254.74 86.1 254.76C84.75 255.02 83.43 255.34 82.1 255.71C80.5 256.15 78.93 256.67 77.41 257.31C75.41 258.15 73.52 259.18 71.8 260.51C68.88 262.76 66.8 265.64 65.3 268.98C64.42 270.94 63.75 272.98 63.19 275.05C62.89 276.17 62.61 277.3 62.42 278.44C62.4 278.54 62.35 278.63 62.32 278.72H62.2C62.15 278.61 62.11 278.5 62.08 278.38C61.99 277.92 61.91 277.45 61.8 277C61.55 275.97 61.3 274.94 61 273.92C60.48 272.1 59.85 270.33 59.05 268.61C57.83 266 56.25 263.65 54.12 261.68C52.28 259.97 50.18 258.67 47.91 257.64C46.4 256.96 44.84 256.39 43.25 255.93C42.04 255.58 40.82 255.26 39.58 254.98C39.09 254.87 38.59 254.81 38.12 254.64V254.52L38.13 254.55Z" fill="#F2672A" fill-opacity="0.3"/>
<path d="M362.58 293.01C363.05 292.84 363.56 292.78 364.04 292.67C365.27 292.39 366.49 292.08 367.7 291.72C369.29 291.25 370.85 290.7 372.36 290.01C374.66 288.96 376.79 287.65 378.64 285.91C380.44 284.22 381.86 282.26 383 280.07C383.99 278.18 384.73 276.19 385.34 274.14C385.74 272.8 386.06 271.45 386.38 270.09C386.45 269.8 386.49 269.5 386.55 269.21C386.57 269.12 386.58 268.98 386.71 268.98C386.84 268.98 386.85 269.11 386.87 269.2C387.04 270.12 387.26 271.02 387.48 271.93C387.83 273.36 388.25 274.77 388.74 276.16C389.51 278.34 390.48 280.42 391.76 282.34C392.36 283.24 393.04 284.09 393.78 284.89C394.99 286.19 396.35 287.31 397.85 288.27C399.4 289.25 401.05 290.04 402.75 290.7C404.43 291.35 406.14 291.87 407.89 292.29C408.77 292.5 409.65 292.73 410.55 292.89C410.66 292.91 410.79 292.93 410.8 293.06C410.8 293.21 410.65 293.2 410.55 293.22C409.2 293.48 407.88 293.8 406.55 294.17C404.95 294.61 403.38 295.13 401.86 295.77C399.86 296.61 397.97 297.64 396.25 298.97C393.33 301.22 391.25 304.1 389.75 307.44C388.87 309.4 388.2 311.44 387.64 313.51C387.34 314.63 387.06 315.76 386.87 316.9C386.85 317 386.8 317.09 386.77 317.18H386.65C386.6 317.07 386.56 316.96 386.53 316.84C386.44 316.38 386.36 315.91 386.25 315.46C386 314.43 385.75 313.4 385.45 312.38C384.93 310.56 384.3 308.79 383.5 307.07C382.28 304.46 380.7 302.11 378.57 300.14C376.73 298.43 374.63 297.13 372.36 296.1C370.85 295.42 369.29 294.85 367.7 294.39C366.49 294.04 365.27 293.72 364.03 293.44C363.54 293.33 363.04 293.27 362.57 293.1V292.98L362.58 293.01Z" fill="#F2672A" fill-opacity="0.3"/>
<path d="M192.66 461.02C193.13 460.85 193.64 460.79 194.12 460.68C195.35 460.4 196.57 460.09 197.78 459.73C199.37 459.26 200.93 458.71 202.44 458.02C204.74 456.97 206.87 455.66 208.72 453.92C210.52 452.23 211.94 450.27 213.08 448.08C214.07 446.19 214.81 444.2 215.42 442.15C215.82 440.81 216.14 439.46 216.46 438.1C216.53 437.81 216.57 437.51 216.63 437.22C216.65 437.13 216.66 436.99 216.79 436.99C216.92 436.99 216.93 437.12 216.95 437.21C217.12 438.13 217.34 439.03 217.56 439.94C217.91 441.37 218.33 442.78 218.82 444.17C219.59 446.35 220.56 448.43 221.84 450.35C222.44 451.25 223.12 452.1 223.86 452.9C225.07 454.2 226.43 455.32 227.93 456.28C229.48 457.26 231.13 458.05 232.83 458.71C234.51 459.36 236.22 459.88 237.97 460.3C238.85 460.51 239.73 460.74 240.63 460.9C240.74 460.92 240.87 460.94 240.88 461.07C240.88 461.22 240.73 461.21 240.63 461.23C239.28 461.49 237.96 461.81 236.63 462.18C235.03 462.62 233.46 463.14 231.94 463.78C229.94 464.62 228.05 465.65 226.33 466.98C223.41 469.23 221.33 472.11 219.83 475.45C218.95 477.41 218.28 479.45 217.72 481.52C217.42 482.64 217.14 483.77 216.95 484.91C216.93 485.01 216.88 485.1 216.85 485.19H216.73C216.68 485.08 216.64 484.97 216.61 484.85C216.52 484.39 216.44 483.92 216.33 483.47C216.08 482.44 215.83 481.41 215.53 480.39C215.01 478.57 214.38 476.8 213.58 475.08C212.36 472.47 210.78 470.12 208.65 468.15C206.81 466.44 204.71 465.14 202.44 464.11C200.93 463.43 199.37 462.86 197.78 462.4C196.57 462.05 195.35 461.73 194.11 461.45C193.62 461.34 193.12 461.28 192.65 461.11V460.99L192.66 461.02Z" fill="#F2672A" fill-opacity="0.3"/>
</g>
<defs>
<clipPath id="clip0_903_245">
<rect width="402" height="874" fill="white" transform="translate(-7)"/>
</clipPath>
</defs>
</svg>
