<svg width="16" height="16" viewBox="0 0 16 16" fill="none" xmlns="http://www.w3.org/2000/svg">
<g clip-path="url(#clip0_9_195)">
<path d="M12.3333 16.0002H3.66667C1.64533 16.0002 0 14.3549 0 12.3336V6.59092C0 5.37092 0.604 4.23492 1.616 3.55158L5.94933 0.627582C7.194 -0.213751 8.80533 -0.213751 10.0513 0.627582L14.384 3.55158C15.396 4.23425 16 5.37092 16 6.59092V12.3336C16 14.3549 14.3547 16.0002 12.3333 16.0002ZM8 1.99825C7.676 1.99825 7.35067 2.09425 7.06867 2.28558L2.73467 5.20892C2.27533 5.51958 2 6.03558 2 6.59025V12.3329C2 13.2522 2.74733 13.9996 3.66667 13.9996H12.3333C13.2527 13.9996 14 13.2522 14 12.3329V6.59092C14 6.03625 13.7253 5.52025 13.2653 5.20958L8.932 2.28558C8.64867 2.09425 8.324 1.99825 8 1.99825Z" fill="white"/>
</g>
<defs>
<clipPath id="clip0_9_195">
<rect width="16" height="16" fill="white"/>
</clipPath>
</defs>
</svg>
