<svg width="40" height="42" viewBox="0 0 40 42" fill="none" xmlns="http://www.w3.org/2000/svg">
<g clip-path="url(#clip0_599_598)">
<path d="M32.8836 40C32.2978 39.9984 31.7182 39.8807 31.1782 39.6538C30.6382 39.4269 30.1486 39.0952 29.7375 38.6779L20 28.9974L10.2625 38.6843C9.63712 39.3187 8.8351 39.7501 7.96099 39.9221C7.08687 40.0941 6.18121 39.9988 5.36208 39.6485C4.53481 39.3158 3.82711 38.7413 3.33138 38.0001C2.83566 37.2589 2.57496 36.3855 2.58333 35.4938V9.91667C2.58333 7.81704 3.4174 5.8034 4.90206 4.31874C6.38673 2.83408 8.40036 2 10.5 2L29.5 2C30.5396 2 31.5691 2.20477 32.5296 2.60262C33.4901 3.00047 34.3628 3.58361 35.0979 4.31874C35.8331 5.05387 36.4162 5.9266 36.814 6.88709C37.2119 7.84758 37.4167 8.87704 37.4167 9.91667V35.4938C37.4255 36.3847 37.1658 37.2577 36.6712 37.9988C36.1767 38.7399 35.4703 39.3148 34.6442 39.6485C34.0866 39.8817 33.488 40.0012 32.8836 40ZM10.5 5.16667C9.24021 5.16667 8.03203 5.66711 7.14123 6.55791C6.25044 7.44871 5.74999 8.65689 5.74999 9.91667V35.4938C5.74942 35.7577 5.82705 36.0158 5.97308 36.2355C6.11912 36.4552 6.32699 36.6268 6.57046 36.7284C6.81393 36.8301 7.08206 36.8573 7.34099 36.8067C7.59992 36.756 7.83803 36.6297 8.02524 36.4438L18.8917 25.6439C19.1883 25.349 19.5896 25.1835 20.0079 25.1835C20.4262 25.1835 20.8275 25.349 21.1242 25.6439L31.9779 36.4407C32.1651 36.6266 32.4032 36.7528 32.6622 36.8035C32.9211 36.8541 33.1892 36.8269 33.4327 36.7253C33.6762 36.6236 33.884 36.4521 34.0301 36.2323C34.1761 36.0126 34.2537 35.7545 34.2532 35.4907V9.91667C34.2532 8.65689 33.7527 7.44871 32.8619 6.55791C31.9711 5.66711 30.7629 5.16667 29.5032 5.16667H10.5Z" fill="#FFC453"/>
</g>
<defs>
<clipPath id="clip0_599_598">
<rect width="38" height="38" fill="white" transform="translate(1 2)"/>
</clipPath>
</defs>
</svg>
