<svg width="16" height="16" viewBox="0 0 16 16" fill="none" xmlns="http://www.w3.org/2000/svg">
<g clip-path="url(#clip0_9_194)">
<path d="M1.89933 15.7C2.26336 15.8556 2.66583 15.8978 3.05423 15.8212C3.44264 15.7447 3.79894 15.5528 4.07667 15.2707L8 11.3687L11.9233 15.2707C12.1063 15.4563 12.3242 15.6037 12.5645 15.7046C12.8048 15.8054 13.0627 15.8575 13.3233 15.858C13.5912 15.8572 13.8563 15.8035 14.1033 15.7C14.4703 15.5515 14.784 15.2957 15.0035 14.9662C15.2229 14.6366 15.3378 14.2486 15.3333 13.8527V3.33333C15.3323 2.4496 14.9807 1.60237 14.3559 0.97748C13.731 0.352588 12.8837 0.00105857 12 0L4 0C3.11627 0.00105857 2.26904 0.352588 1.64415 0.97748C1.01925 1.60237 0.667724 2.4496 0.666666 3.33333V13.8527C0.662364 14.2489 0.777717 14.6372 0.997641 14.9667C1.21757 15.2963 1.53183 15.5519 1.89933 15.7Z" fill="#FFC453"/>
</g>
<defs>
<clipPath id="clip0_9_194">
<rect width="16" height="16" fill="white"/>
</clipPath>
</defs>
</svg>
