<svg width="40" height="38" viewBox="0 0 40 38" fill="none" xmlns="http://www.w3.org/2000/svg">
<g clip-path="url(#clip0_599_593)">
<path d="M28.7088 3.03525C26.9259 3.06298 25.1819 3.56068 23.6529 4.47809C22.1238 5.39551 20.864 6.70014 20.0005 8.26025C19.137 6.70014 17.8771 5.39551 16.3481 4.47809C14.8191 3.56068 13.0751 3.06298 11.2922 3.03525C8.44998 3.15873 5.77219 4.40207 3.84382 6.49362C1.91544 8.58516 0.893222 11.3549 1.00049 14.1977C1.00049 21.3972 8.57833 29.26 14.9338 34.5911C16.3528 35.7835 18.147 36.4373 20.0005 36.4373C21.854 36.4373 23.6481 35.7835 25.0672 34.5911C31.4227 29.26 39.0005 21.3972 39.0005 14.1977C39.1078 11.3549 38.0856 8.58516 36.1572 6.49362C34.2288 4.40207 31.551 3.15873 28.7088 3.03525ZM23.0326 32.1686C22.1839 32.8833 21.11 33.2752 20.0005 33.2752C18.891 33.2752 17.8171 32.8833 16.9684 32.1686C8.83324 25.3428 4.16716 18.7942 4.16716 14.1977C4.05892 12.1944 4.74724 10.2295 6.08199 8.73161C7.41673 7.23372 9.28961 6.32439 11.2922 6.20191C13.2947 6.32439 15.1676 7.23372 16.5023 8.73161C17.8371 10.2295 18.5254 12.1944 18.4172 14.1977C18.4172 14.6177 18.584 15.0204 18.8809 15.3173C19.1778 15.6143 19.5806 15.7811 20.0005 15.7811C20.4204 15.7811 20.8231 15.6143 21.1201 15.3173C21.417 15.0204 21.5838 14.6177 21.5838 14.1977C21.4756 12.1944 22.1639 10.2295 23.4987 8.73161C24.8334 7.23372 26.7063 6.32439 28.7088 6.20191C30.7114 6.32439 32.5843 7.23372 33.919 8.73161C35.2537 10.2295 35.9421 12.1944 35.8338 14.1977C35.8338 18.7942 31.1677 25.3428 23.0326 32.1622V32.1686Z" fill="#F2672A"/>
</g>
<defs>
<clipPath id="clip0_599_593">
<rect width="38" height="38" fill="white" transform="translate(1)"/>
</clipPath>
</defs>
</svg>
