<svg width="16" height="16" viewBox="0 0 16 16" fill="none" xmlns="http://www.w3.org/2000/svg">
<g clip-path="url(#clip0_9_187)">
<path d="M11.662 1C10.9116 1.01245 10.1775 1.23596 9.53399 1.64795C8.89046 2.05993 8.3602 2.64581 7.99677 3.34641C7.63335 2.64581 7.10309 2.05993 6.45955 1.64795C5.81601 1.23596 5.08198 1.01245 4.33159 1C3.13536 1.05545 2.00833 1.6138 1.1967 2.55306C0.385083 3.49233 -0.0451499 4.73615 -1.13272e-06 6.01279C-1.13272e-06 9.24587 3.18938 12.7769 5.8643 15.1709C6.46154 15.7064 7.21666 16 7.99677 16C8.77689 16 9.53201 15.7064 10.1292 15.1709C12.8042 12.7769 15.9935 9.24587 15.9935 6.01279C16.0387 4.73615 15.6085 3.49233 14.7968 2.55306C13.9852 1.6138 12.8582 1.05545 11.662 1Z" fill="url(#paint0_linear_9_187)"/>
</g>
<defs>
<linearGradient id="paint0_linear_9_187" x1="7.99677" y1="1" x2="7.99677" y2="16" gradientUnits="userSpaceOnUse">
<stop stop-color="#FF8FAA"/>
<stop offset="1" stop-color="#F2672A"/>
</linearGradient>
<clipPath id="clip0_9_187">
<rect width="16" height="16" fill="white"/>
</clipPath>
</defs>
</svg>
