<svg width="38" height="38" viewBox="0 0 38 38" fill="none" xmlns="http://www.w3.org/2000/svg">
<g clip-path="url(#clip0_599_603)">
<path d="M20.9729 38C20.1962 38 19.4978 37.4703 19.2128 36.6632L15.8969 27.2802C15.618 26.4906 15.4493 26.014 15.3132 25.8028C15.1916 25.6135 15.0449 25.4501 14.877 25.3156C14.6862 25.1628 14.2591 24.9751 13.5523 24.6643L5.14366 20.9638C4.42091 20.6462 3.9459 19.8672 3.9459 19C3.9459 18.1328 4.42091 17.3538 5.14366 17.0362L13.5523 13.3357C14.2599 13.0241 14.6862 12.8364 14.8762 12.6844C15.0457 12.5491 15.1924 12.3857 15.3132 12.1972C15.4493 11.9844 15.618 11.5079 15.8969 10.719L19.2128 1.33684C19.4978 0.530477 20.1955 -2.93949e-06 20.9729 -2.93949e-06C21.7504 -2.93949e-06 22.4481 0.529717 22.7331 1.33684L26.049 10.719C26.3279 11.5079 26.4959 11.9844 26.6327 12.1972C26.7535 12.3857 26.9002 12.5499 27.0689 12.6844C27.2597 12.8364 27.686 13.0249 28.3936 13.3357L36.8022 17.0362C37.525 17.3546 38 18.1328 38 19C38 19.8672 37.525 20.6462 36.8022 20.9638L28.3936 24.6643C27.686 24.9759 27.2589 25.1636 27.0697 25.3156C26.9002 25.4509 26.7535 25.6143 26.6327 25.8028C26.4959 26.0156 26.3279 26.4921 26.049 27.281L22.7331 36.6639C22.4481 37.4703 21.7497 38.0008 20.9729 38.0008V38ZM10.9941 19L14.9401 20.7366C15.9189 21.1675 16.5095 21.4274 17.0802 21.8834C17.5856 22.2878 18.0272 22.7795 18.3897 23.3449C18.7978 23.9803 19.0304 24.6392 19.4165 25.7313L20.9729 30.1348L22.5294 25.7321C22.9155 24.64 23.1481 23.9803 23.5569 23.3442C23.9195 22.7795 24.3603 22.2878 24.8664 21.8827C25.4357 21.4274 26.0262 21.1675 27.0051 20.7366L30.9517 19L27.0058 17.2634C26.0269 16.8325 25.4364 16.5726 24.8657 16.1166C24.3595 15.7122 23.9187 15.2205 23.5562 14.6551C23.1481 14.019 22.9147 13.36 22.5287 12.2679L20.9722 7.86524L19.4157 12.2679C19.0296 13.36 18.7963 14.0197 18.3882 14.6558C18.0257 15.2205 17.5849 15.713 17.0779 16.1173C16.5079 16.5733 15.9174 16.8325 14.9385 17.2634L10.9926 19H10.9941ZM5.83678 38C4.79179 38 3.94514 37.0546 3.94514 35.8887V33.7774H2.0535C1.00851 33.7774 0.161865 32.832 0.161865 31.6662C0.161865 30.5003 1.00927 29.5549 2.0535 29.5549H3.94514V27.4436C3.94514 26.2778 4.79255 25.3323 5.83678 25.3323C6.88102 25.3323 7.72842 26.2778 7.72842 27.4436V29.5549H9.62006C10.6651 29.5549 11.5117 30.5003 11.5117 31.6662C11.5117 32.832 10.6643 33.7774 9.62006 33.7774H7.72842V35.8887C7.72842 37.0546 6.88102 38 5.83678 38ZM7.72918 12.6669C6.68418 12.6669 5.83754 11.7215 5.83754 10.5556V8.44436H3.9459C2.9009 8.44436 2.05427 7.49892 2.05427 6.33308C2.05427 5.16724 2.90166 4.2218 3.9459 4.2218H5.83754V2.11052C5.83754 0.944677 6.68494 -0.000762939 7.72918 -0.000762939C8.77342 -0.000762939 9.62082 0.944677 9.62082 2.11052V4.2218H11.5125C12.5575 4.2218 13.4041 5.16724 13.4041 6.33308C13.4041 7.49892 12.5567 8.44436 11.5125 8.44436H9.62082V10.5556C9.62082 11.7215 8.77342 12.6669 7.72918 12.6669Z" fill="#FF8FAA"/>
</g>
<defs>
<clipPath id="clip0_599_603">
<rect width="38" height="38" fill="white"/>
</clipPath>
</defs>
</svg>
