<svg width="38" height="38" viewBox="0 0 38 38" fill="none" xmlns="http://www.w3.org/2000/svg">
<g clip-path="url(#clip0_599_601)">
<path d="M36.6045 1.39638C36.0369 0.821832 35.3306 0.403401 34.554 0.181514C33.7774 -0.0403725 32.9567 -0.0582142 32.1712 0.129713L6.83787 5.46555C5.37895 5.66563 4.00487 6.26905 2.87036 7.20787C1.73585 8.14668 0.885986 9.3836 0.416467 10.7793C-0.0530517 12.175 -0.123573 13.6741 0.212846 15.1078C0.549264 16.5414 1.27926 17.8526 2.32062 18.8938L5.04079 21.6124C5.18802 21.7596 5.30477 21.9343 5.38438 22.1267C5.46398 22.319 5.50487 22.5252 5.50471 22.7334V27.7494C5.5082 28.4546 5.67055 29.1501 5.97971 29.784L5.96704 29.795L6.00821 29.8362C6.47214 30.769 7.22988 31.5234 8.16471 31.9832L8.20587 32.0244L8.21696 32.0117C8.85086 32.3209 9.54628 32.4832 10.2515 32.4867H15.2675C15.6872 32.4864 16.0898 32.6527 16.387 32.949L19.1055 35.6676C19.8347 36.4049 20.7026 36.9905 21.6591 37.3908C22.6157 37.7911 23.642 37.9981 24.6789 37.9999C25.543 37.9988 26.4012 37.8576 27.2201 37.5819C28.6031 37.1278 29.8316 36.2962 30.7672 35.1811C31.7027 34.0659 32.308 32.7116 32.5148 31.2707L37.8585 5.88196C38.0562 5.08973 38.0446 4.25971 37.8247 3.47334C37.6049 2.68696 37.1844 1.97124 36.6045 1.39638ZM7.28279 19.3767L4.56104 16.6581C3.92726 16.0396 3.48306 15.2532 3.28058 14.391C3.07809 13.5289 3.12572 12.627 3.41787 11.791C3.70112 10.9333 4.22475 10.1751 4.92647 9.60638C5.62819 9.03771 6.47848 8.68254 7.37621 8.58313L32.4578 3.30271L8.66821 27.0955V22.7334C8.6706 22.1101 8.5494 21.4925 8.31159 20.9163C8.07379 20.3402 7.72412 19.8169 7.28279 19.3767ZM29.4035 30.7292C29.282 31.6037 28.9191 32.4271 28.3555 33.1068C27.792 33.7865 27.0502 34.2957 26.2133 34.5773C25.3765 34.8588 24.4777 34.9015 23.6179 34.7006C22.7582 34.4997 21.9714 34.0631 21.346 33.4399L18.6226 30.7165C18.183 30.2746 17.6602 29.9241 17.0843 29.6855C16.5084 29.4469 15.8909 29.3248 15.2675 29.3264H10.9055L34.6982 5.54155L29.4035 30.7292Z" fill="#75C1FF"/>
</g>
<defs>
<clipPath id="clip0_599_601">
<rect width="38" height="38" fill="white"/>
</clipPath>
</defs>
</svg>
